<svg width="111" height="107" viewBox="0 0 111 107" fill="none" xmlns="http://www.w3.org/2000/svg">
<path d="M96.8698 45.6359C103.034 49.0666 103.034 57.9334 96.8698 61.3641L41.1267 92.3876C35.1278 95.7263 27.75 91.3889 27.75 84.5235V22.4765C27.75 15.6111 35.1278 11.2737 41.1267 14.6124L96.8698 45.6359Z" fill="#BD0071"/>
<path d="M9.73828 78L18.6328 26.8125L33.3281 26.8477C36.7734 26.918 39.8672 27.7031 42.6094 29.2031C45.375 30.6797 47.6133 32.8125 49.3242 35.6016C51.0352 38.3906 52.0664 41.5312 52.418 45.0234C52.6055 47.0625 52.582 49.1484 52.3477 51.2812L52.1016 53.1445C51.0703 60.6445 48.1172 66.668 43.2422 71.2148C38.3906 75.7383 32.4961 78 25.5586 78H9.73828ZM27.457 35.3555L21.5156 69.5273L25.8047 69.5625C30.5391 69.5625 34.3359 67.8281 37.1953 64.3594C40.0781 60.8906 41.7305 55.6523 42.1523 48.6445L42.2227 47.5195C42.293 43.6523 41.5547 40.6875 40.0078 38.625C38.4609 36.5625 36.1523 35.4844 33.082 35.3906L27.457 35.3555ZM89.2969 55.8164H69.6797L67.2891 69.5273H90.3516L88.875 78H55.5117L64.4062 26.8125H97.6992L96.1875 35.3555H73.2305L71.0859 47.5547H90.7734L89.2969 55.8164Z" fill="white"/>
<path d="M9.73828 78L7.76781 77.6576L7.36078 80H9.73828V78ZM18.6328 26.8125L18.6376 24.8125L16.9511 24.8085L16.6623 26.4701L18.6328 26.8125ZM33.3281 26.8477L33.3689 24.8481L33.3509 24.8477L33.3329 24.8477L33.3281 26.8477ZM42.6094 29.2031L41.6496 30.9578L41.6585 30.9626L41.6674 30.9674L42.6094 29.2031ZM52.418 45.0234L54.4096 44.8403L54.4088 44.8317L54.4079 44.8231L52.418 45.0234ZM52.3477 51.2812L54.3304 51.5431L54.3333 51.5214L54.3357 51.4997L52.3477 51.2812ZM52.1016 53.1445L54.0829 53.417L54.0843 53.4064L52.1016 53.1445ZM43.2422 71.2148L44.6061 72.6777L44.6063 72.6774L43.2422 71.2148ZM27.457 35.3555L27.4695 33.3555L25.7766 33.3449L25.4866 35.0129L27.457 35.3555ZM21.5156 69.5273L19.5452 69.1847L19.1413 71.5079L21.4992 71.5273L21.5156 69.5273ZM25.8047 69.5625L25.7883 71.5624L25.7965 71.5625H25.8047V69.5625ZM37.1953 64.3594L35.6572 63.081L35.6521 63.0872L37.1953 64.3594ZM42.1523 48.6445L40.1562 48.5198L40.156 48.5243L42.1523 48.6445ZM42.2227 47.5195L44.2188 47.6443L44.2215 47.6001L44.2223 47.5559L42.2227 47.5195ZM33.082 35.3906L33.1431 33.3916L33.1188 33.3908L33.0945 33.3907L33.082 35.3906ZM11.7088 78.3424L20.6033 27.1549L16.6623 26.4701L7.76781 77.6576L11.7088 78.3424ZM18.628 28.8125L33.3233 28.8477L33.3329 24.8477L18.6376 24.8125L18.628 28.8125ZM33.2873 28.8472C36.4446 28.9117 39.2176 29.6275 41.6496 30.9578L43.5692 27.4485C40.5168 25.7788 37.1023 24.9243 33.3689 24.8481L33.2873 28.8472ZM41.6674 30.9674C44.1054 32.2691 46.0859 34.1475 47.6194 36.6474L51.029 34.5558C49.1406 31.4775 46.6446 29.0903 43.5513 27.4388L41.6674 30.9674ZM47.6194 36.6474C49.1616 39.1613 50.1044 42.0091 50.428 45.2238L54.4079 44.8231C54.0284 41.0534 52.9087 37.62 51.029 34.5558L47.6194 36.6474ZM50.4264 45.2066C50.601 47.1058 50.58 49.057 50.3596 51.0628L54.3357 51.4997C54.584 49.2399 54.6099 47.0192 54.4096 44.8403L50.4264 45.2066ZM50.3649 51.0194L50.1188 52.8827L54.0843 53.4064L54.3304 51.5431L50.3649 51.0194ZM50.1202 52.8721C49.1427 59.9815 46.3712 65.5615 41.8781 69.7523L44.6063 72.6774C49.8631 67.7744 52.998 61.3075 54.0829 53.417L50.1202 52.8721ZM41.8783 69.752C37.4153 73.9132 32.0155 76 25.5586 76V80C32.9767 80 39.3659 77.5634 44.6061 72.6777L41.8783 69.752ZM25.5586 76H9.73828V80H25.5586V76ZM25.4866 35.0129L19.5452 69.1847L23.4861 69.8699L29.4275 35.6981L25.4866 35.0129ZM21.4992 71.5273L25.7883 71.5624L25.8211 67.5626L21.532 67.5274L21.4992 71.5273ZM25.8047 71.5625C31.0999 71.5625 35.4767 69.5886 38.7386 65.6315L35.6521 63.0872C33.1952 66.0677 29.9782 67.5625 25.8047 67.5625V71.5625ZM38.7335 65.6377C42.0021 61.7047 43.7146 55.9765 44.1487 48.7647L40.156 48.5243C39.7464 55.3281 38.1541 60.0766 35.6572 63.0811L38.7335 65.6377ZM44.1484 48.7693L44.2188 47.6443L40.2266 47.3948L40.1562 48.5198L44.1484 48.7693ZM44.2223 47.5559C44.2969 43.4562 43.5262 39.9828 41.6078 37.425L38.4078 39.825C39.5832 41.3922 40.2891 43.8485 40.223 47.4832L44.2223 47.5559ZM41.6078 37.425C39.6248 34.781 36.6915 33.4999 33.1431 33.3916L33.021 37.3897C35.6131 37.4688 37.2971 38.344 38.4078 39.825L41.6078 37.425ZM33.0945 33.3907L27.4695 33.3555L27.4445 37.3554L33.0695 37.3906L33.0945 33.3907ZM89.2969 55.8164V57.8164H90.9711L91.2657 56.1683L89.2969 55.8164ZM69.6797 55.8164V53.8164H67.9982L67.7094 55.4729L69.6797 55.8164ZM67.2891 69.5273L65.3188 69.1838L64.9102 71.5273H67.2891V69.5273ZM90.3516 69.5273L92.3219 69.8707L92.7303 67.5273H90.3516V69.5273ZM88.875 78V80H90.5566L90.8453 78.3434L88.875 78ZM55.5117 78L53.5412 77.6576L53.1342 80H55.5117V78ZM64.4062 26.8125V24.8125H62.7238L62.4358 26.4701L64.4062 26.8125ZM97.6992 26.8125L99.6686 27.161L100.084 24.8125H97.6992V26.8125ZM96.1875 35.3555V37.3555H97.8647L98.1569 35.704L96.1875 35.3555ZM73.2305 35.3555V33.3555H71.5514L71.2607 35.0092L73.2305 35.3555ZM71.0859 47.5547L69.1161 47.2084L68.7037 49.5547H71.0859V47.5547ZM90.7734 47.5547L92.7422 47.9066L93.1626 45.5547H90.7734V47.5547ZM89.2969 53.8164H69.6797V57.8164H89.2969V53.8164ZM67.7094 55.4729L65.3188 69.1838L69.2593 69.8709L71.65 56.1599L67.7094 55.4729ZM67.2891 71.5273H90.3516V67.5273H67.2891V71.5273ZM88.3813 69.184L86.9047 77.6566L90.8453 78.3434L92.3219 69.8707L88.3813 69.184ZM88.875 76H55.5117V80H88.875V76ZM57.4822 78.3424L66.3767 27.1549L62.4358 26.4701L53.5412 77.6576L57.4822 78.3424ZM64.4062 28.8125H97.6992V24.8125H64.4062V28.8125ZM95.7298 26.464L94.2181 35.007L98.1569 35.704L99.6686 27.161L95.7298 26.464ZM96.1875 33.3555H73.2305V37.3555H96.1875V33.3555ZM71.2607 35.0092L69.1161 47.2084L73.0557 47.901L75.2003 35.7017L71.2607 35.0092ZM71.0859 49.5547H90.7734V45.5547H71.0859V49.5547ZM88.8046 47.2028L87.3281 55.4645L91.2657 56.1683L92.7422 47.9066L88.8046 47.2028Z" fill="black"/>
</svg>
